<?xml version="1.0" standalone="no"?>
<!DOCTYPE svg PUBLIC "-//W3C//DTD SVG 20010904//EN"
 "http://www.w3.org/TR/2001/REC-SVG-20010904/DTD/svg10.dtd">
<svg version="1.0" xmlns="http://www.w3.org/2000/svg"
 width="256.000000pt" height="256.000000pt" viewBox="0 0 256.000000 256.000000"
 preserveAspectRatio="xMidYMid meet">

<g transform="translate(0.000000,256.000000) scale(0.100000,-0.100000)"
fill="#000000" stroke="none">
<path d="M1046 2524 c-237 -43 -489 -175 -662 -348 -176 -176 -306 -426 -349
-670 -19 -113 -20 -337 0 -447 87 -503 482 -906 995 -1016 117 -25 381 -25
498 1 328 70 616 263 795 533 135 202 201 399 214 638 11 214 -30 422 -121
610 -179 371 -520 632 -915 700 -106 19 -349 18 -455 -1z m479 -28 c414 -93
746 -369 899 -749 168 -417 99 -887 -182 -1240 -77 -96 -77 -96 -115 -59 -23
23 -43 32 -66 32 -44 0 -66 14 -91 58 -24 41 -106 100 -218 156 -40 20 -90 54
-112 76 -22 22 -42 40 -45 40 -11 0 -3 -56 10 -74 21 -28 19 -51 -11 -99 -71
-114 -169 -172 -335 -198 -122 -19 -229 20 -294 106 -31 40 -37 89 -22 200 11
86 -1 98 -52 52 -26 -23 -60 -42 -98 -52 -92 -25 -173 -55 -237 -87 -72 -36
-193 -123 -206 -149 -6 -10 -14 -19 -19 -19 -16 0 -115 149 -161 245 -98 200
-125 324 -124 555 1 189 18 288 80 443 67 169 150 294 278 423 194 194 424
310 705 354 81 13 334 4 416 -14z"/>
<path d="M1193 2419 c-11 -28 -14 -29 -75 -30 -47 0 -58 -3 -43 -10 17 -8 15
-9 -9 -5 -20 2 -42 -5 -72 -26 -24 -16 -44 -32 -44 -35 0 -2 9 -16 20 -30 32
-41 25 -58 -32 -92 -29 -16 -71 -49 -93 -73 -93 -99 -88 -90 -100 -178 l-5
-35 16 40 c9 22 16 51 15 65 0 18 2 21 8 11 7 -11 11 -10 20 6 5 11 7 23 4 27
-3 3 -2 6 4 6 6 0 13 -6 15 -12 7 -18 -2 -39 -13 -32 -14 8 -40 -62 -34 -89 9
-34 -10 -76 -32 -72 -10 2 -22 4 -27 4 -5 1 -1 11 10 22 19 22 19 22 -2 11
-30 -16 -36 -37 -14 -57 17 -15 19 -15 28 0 7 14 12 11 30 -20 30 -50 29 -67
-11 -153 -8 -17 -6 -30 10 -60 11 -20 26 -58 33 -85 19 -70 30 -67 30 10 0 46
7 82 20 111 11 23 15 40 10 37 -6 -3 -10 -1 -10 4 0 18 -28 13 -39 -6 -15 -26
-14 3 1 30 7 12 13 28 14 36 2 8 6 17 11 20 5 3 13 17 19 31 11 26 38 30 184
31 31 0 51 6 67 21 17 16 29 19 55 14 18 -3 59 -7 91 -7 31 -1 57 -5 57 -10 0
-4 11 2 25 15 23 21 75 41 75 28 0 -2 -10 -14 -22 -26 -13 -12 -32 -34 -43
-49 -30 -40 -67 -44 -99 -12 -19 19 -26 22 -26 10 0 -30 38 -55 83 -55 50 0
52 1 101 63 33 41 43 47 75 47 20 0 42 -5 48 -11 9 -9 11 -6 7 12 -4 21 -3 22
5 4 4 -11 6 -23 4 -28 -8 -14 37 -74 83 -112 25 -21 51 -51 56 -67 8 -22 13
-26 19 -16 5 7 9 -46 9 -127 l0 -139 18 36 c11 21 17 48 14 66 -3 22 5 48 26
86 17 31 27 54 22 51 -4 -2 -7 9 -6 24 1 16 4 27 8 25 3 -2 9 4 11 13 3 13 5
11 7 -7 2 -24 3 -23 9 5 7 32 -2 94 -16 104 -27 20 -35 62 -29 139 5 53 4 82
-3 87 -6 3 -11 15 -11 25 0 10 -4 22 -10 25 -6 3 -7 -1 -4 -9 4 -10 1 -16 -9
-16 -25 0 -47 11 -41 21 3 5 -1 6 -9 3 -8 -3 -20 3 -28 12 -13 16 -12 17 16 9
17 -4 41 -8 55 -10 39 -3 40 -4 40 -32 0 -14 3 -23 6 -20 11 10 -17 126 -36
150 -45 58 -62 121 -39 144 8 8 7 17 -3 32 -16 26 -24 26 -73 0 -72 -39 -154
-23 -181 35 -11 22 -30 40 -53 50 -61 27 -127 26 -136 -3 -7 -23 -35 -35 -48
-22 -7 7 -6 15 2 25 7 8 8 17 3 19 -4 3 -13 -7 -19 -24z m-116 -101 c-3 -8 -6
-5 -6 6 -1 11 2 17 5 13 3 -3 4 -12 1 -19z m537 -27 c3 -4 -4 -17 -16 -27 -13
-12 -18 -13 -12 -4 5 8 9 18 10 23 3 15 4 17 8 17 3 0 7 -4 10 -9z m-501 -73
c-2 -4 2 -5 10 -2 7 2 25 -5 38 -16 22 -19 22 -20 2 -11 -12 6 -31 11 -42 11
-12 0 -21 7 -21 16 0 9 -5 12 -12 8 -6 -4 -8 -3 -4 4 3 6 2 13 -4 17 -5 3 -10
10 -10 15 0 5 10 -1 23 -13 13 -12 22 -25 20 -29z m250 30 c-18 -6 -33 -15
-33 -19 0 -5 -11 -9 -24 -9 -14 0 -27 -4 -30 -8 -2 -4 13 -8 35 -7 21 0 39 3
39 8 0 4 5 7 10 7 6 0 10 -7 10 -15 0 -12 8 -14 40 -9 28 5 40 3 40 -5 0 -8 5
-8 15 2 9 10 23 13 37 9 19 -5 20 -7 5 -10 -26 -5 -16 -25 21 -41 25 -11 32
-21 32 -42 0 -23 -5 -29 -32 -34 -18 -4 -37 -11 -43 -15 -5 -4 -24 -11 -41
-14 -26 -6 -32 -3 -41 17 -9 18 -8 28 0 37 10 10 8 10 -9 2 -13 -7 -24 -8 -30
-2 -6 6 -8 -3 -6 -25 2 -19 8 -35 12 -35 5 0 6 10 3 23 -4 21 -4 21 10 -2 17
-28 13 -47 -10 -55 -13 -5 -14 -4 -3 9 11 13 10 14 -3 9 -12 -4 -17 3 -23 30
-3 20 -11 36 -16 36 -5 0 -7 13 -3 30 9 41 -1 38 -25 -9 -25 -50 -36 -57 -42
-26 -4 20 -2 23 7 15 10 -8 15 -8 20 1 11 16 -16 29 -36 18 -26 -13 -29 -12
-29 14 0 26 32 62 44 50 4 -4 4 0 1 9 -4 9 0 20 7 24 24 16 93 43 108 42 8 0
0 -5 -17 -10z m196 -7 c10 -6 -1 -8 -30 -4 -24 3 -46 7 -48 9 -10 9 65 3 78
-5z m-155 -26 c-4 -8 -8 -15 -10 -15 -2 0 -4 7 -4 15 0 8 4 15 10 15 5 0 7 -7
4 -15z m-319 -13 c-3 -3 -11 0 -18 7 -9 10 -8 11 6 5 10 -3 15 -9 12 -12z
m-95 -13 c0 -5 -4 -7 -10 -4 -5 3 -18 1 -27 -5 -14 -9 -14 -10 -2 -7 28 9 41
-7 29 -37 -13 -35 -13 -56 0 -36 5 8 10 10 10 4 0 -6 -7 -17 -15 -24 -8 -7
-15 -19 -15 -26 0 -8 -4 -14 -9 -14 -5 0 -7 9 -4 20 3 11 9 20 14 20 5 0 6 6
3 13 -3 8 0 26 5 40 10 25 9 27 -18 27 -32 0 -54 -26 -66 -78 -4 -21 -2 -39 6
-50 12 -15 11 -15 -3 -2 -19 18 -36 66 -19 56 6 -4 11 0 11 9 0 14 -3 14 -26
-1 -17 -12 -21 -19 -14 -24 8 -5 8 -10 2 -14 -5 -3 -14 0 -20 7 -8 9 0 24 34
56 24 25 44 41 44 37 0 -4 14 4 31 18 32 27 59 34 59 15z m607 -21 c-3 -7 -5
-2 -5 12 0 14 2 19 5 13 2 -7 2 -19 0 -25z m110 -18 c-9 -15 -22 -20 -52 -18
l-40 1 35 4 c40 5 63 20 53 36 -3 6 -1 7 5 3 9 -5 8 -12 -1 -26z m-630 -12
c-3 -7 -5 -2 -5 12 0 14 2 19 5 13 2 -7 2 -19 0 -25z m-65 -10 c-8 -8 -9 -4
-5 13 4 13 8 18 11 10 2 -7 -1 -18 -6 -23z m128 -3 c0 -8 7 -11 19 -8 10 3 21
1 24 -4 3 -5 -6 -8 -20 -7 -17 0 -29 8 -35 23 -5 14 -4 20 2 16 6 -3 10 -12
10 -20z m-280 -89 c0 -3 -4 -8 -10 -11 -5 -3 -10 -1 -10 4 0 6 5 11 10 11 6 0
10 -2 10 -4z m189 -17 c-8 -5 -25 -9 -39 -9 -18 0 -21 3 -11 9 7 5 24 9 38 9
18 0 21 -3 12 -9z m76 -12 c19 -4 19 -5 -1 -6 -12 0 -28 7 -35 17 -12 15 -12
16 1 6 8 -7 24 -14 35 -17z m-235 -12 c14 -19 14 -19 -2 -6 -10 7 -18 18 -18
24 0 6 1 8 3 6 1 -2 9 -13 17 -24z m-58 -17 c-6 -6 -12 -4 -16 7 -3 9 -2 13 4
10 6 -3 10 0 11 7 0 10 2 10 6 0 3 -8 1 -18 -5 -24z m109 15 c13 -16 12 -17
-3 -4 -17 13 -22 21 -14 21 2 0 10 -8 17 -17z m793 1 c3 -9 6 -24 6 -34 0 -16
-3 -17 -25 -7 -13 7 -26 19 -28 27 -2 9 -7 4 -11 -12 -5 -16 -14 -28 -21 -28
-8 0 -15 -8 -18 -17 -2 -10 -3 0 -3 23 1 32 4 40 17 37 8 -3 21 3 28 11 17 21
47 20 55 0z m33 -46 c-3 -7 -5 -2 -5 12 0 14 2 19 5 13 2 -7 2 -19 0 -25z
m-792 2 c-3 -5 -14 -10 -23 -9 -14 0 -13 2 3 9 27 11 27 11 20 0z m182 4 c-3
-3 -12 -4 -19 -1 -8 3 -5 6 6 6 11 1 17 -2 13 -5z m108 -14 l30 -20 -95 2
c-94 2 -94 2 -20 6 70 3 73 4 50 17 -15 9 -19 14 -10 15 8 0 29 -9 45 -20z
m-165 -55 c0 -24 -25 -45 -53 -45 -11 0 -14 11 -11 48 2 26 3 48 4 50 0 1 14
-4 30 -13 21 -11 30 -23 30 -40z m583 15 c-10 -25 -19 -36 -24 -29 -4 7 -14 9
-23 6 -10 -4 -16 -1 -16 7 0 15 32 18 41 3 4 -5 10 4 14 22 3 17 10 31 15 31
5 0 1 -18 -7 -40z m49 -44 c-3 -5 2 -7 11 -3 24 9 21 4 -12 -21 -16 -12 -28
-16 -27 -9 1 7 6 28 11 47 7 30 9 32 15 15 4 -11 5 -24 2 -29z m-115 -38 c-3
-7 -5 -2 -5 12 0 14 2 19 5 13 2 -7 2 -19 0 -25z m186 -67 c6 -9 2 -8 -11 3
-12 11 -22 29 -21 40 0 19 1 19 10 -3 5 -14 15 -32 22 -40z m-52 -28 c13 -17
13 -17 -6 -3 -11 8 -22 16 -24 17 -2 2 0 3 6 3 6 0 17 -8 24 -17z"/>
<path d="M1243 2153 c4 -3 1 -13 -6 -21 -10 -13 -9 -14 9 -4 12 6 24 8 28 5 3
-3 6 -2 6 4 0 6 -7 14 -16 17 -20 8 -29 8 -21 -1z"/>
<path d="M887 2143 c-4 -3 -7 -11 -7 -17 0 -6 5 -5 12 2 6 6 9 14 7 17 -3 3
-9 2 -12 -2z"/>
<path d="M1705 1980 c20 -22 31 -20 22 5 -4 8 -14 15 -23 15 -16 0 -16 -2 1
-20z"/>
<path d="M753 1720 c0 -25 2 -35 4 -22 2 12 2 32 0 45 -2 12 -4 2 -4 -23z"/>
<path d="M901 1567 c-48 -24 -37 -38 22 -31 30 4 77 3 104 -1 46 -8 47 -9 18
-16 -26 -6 -24 -7 20 -9 54 -3 108 0 114 6 12 12 -29 35 -89 48 -82 19 -156
20 -189 3z"/>
<path d="M1430 1557 c-37 -8 -56 -17 -58 -29 -3 -13 7 -18 45 -23 26 -3 59 -8
73 -11 l25 -4 -25 15 c-24 15 -20 16 60 12 47 -3 94 -8 105 -12 15 -6 11 1
-12 26 -29 30 -39 33 -95 36 -35 1 -88 -3 -118 -10z"/>
<path d="M1025 1492 c-26 -9 -77 -44 -71 -49 2 -2 19 5 37 16 34 21 64 28 55
13 -2 -4 -1 -14 4 -22 8 -12 12 -12 22 -2 10 10 10 15 -2 22 -23 14 15 13 43
-1 20 -10 21 -10 7 5 -18 18 -66 28 -95 18z"/>
<path d="M1530 1483 c8 -3 25 -15 38 -26 12 -11 22 -18 22 -14 0 13 -44 47
-59 46 -14 0 -14 -1 -1 -6z"/>
<path d="M1423 1470 c-13 -5 -23 -12 -23 -14 0 -3 7 -3 15 0 10 4 15 0 16 -12
0 -16 2 -15 9 4 11 27 34 28 85 2 l40 -20 -28 25 c-29 26 -73 32 -114 15z"/>
<path d="M1455 1451 c-3 -5 -1 -12 5 -16 12 -7 30 2 30 16 0 12 -27 12 -35 0z"/>
<path d="M1496 1433 c-6 -14 -5 -15 5 -6 7 7 10 15 7 18 -3 3 -9 -2 -12 -12z"/>
<path d="M810 1423 c0 -4 5 -15 10 -23 8 -13 10 -13 10 2 0 9 -4 20 -10 23 -5
3 -10 3 -10 -2z"/>
<path d="M1755 1408 c-3 -7 -1 -33 4 -58 9 -44 9 -44 10 -10 1 19 4 45 7 58 7
23 -13 32 -21 10z"/>
<path d="M766 1383 c4 -15 13 -35 20 -43 12 -12 14 -10 14 18 0 21 -6 35 -20
42 -19 10 -20 9 -14 -17z m21 -25 c-3 -8 -6 -5 -6 6 -1 11 2 17 5 13 3 -3 4
-12 1 -19z"/>
<path d="M1736 1233 c-6 -14 -5 -15 5 -6 7 7 10 15 7 18 -3 3 -9 -2 -12 -12z"/>
<path d="M1185 1160 c3 -5 14 -10 23 -10 15 0 15 2 2 10 -20 13 -33 13 -25 0z"/>
<path d="M1233 1001 c-56 -3 -104 -9 -108 -12 -7 -7 146 -1 250 11 67 7 67 7
15 7 -30 0 -101 -3 -157 -6z"/>
<path d="M960 786 c0 -2 8 -10 18 -17 15 -13 16 -12 3 4 -13 16 -21 21 -21 13z"/>
<path d="M1020 725 c13 -14 26 -25 28 -25 3 0 -5 11 -18 25 -13 14 -26 25 -28
25 -3 0 5 -11 18 -25z"/>
<path d="M1479 723 c-13 -16 -12 -17 4 -4 16 13 21 21 13 21 -2 0 -10 -8 -17
-17z"/>
<path d="M1415 679 c-16 -10 -25 -19 -19 -19 7 0 22 9 35 20 30 24 23 24 -16
-1z"/>
<path d="M1198 653 c34 -2 90 -2 125 0 34 2 6 3 -63 3 -69 0 -97 -1 -62 -3z"/>
</g>
</svg>
