<svg id="Layer_1" data-name="Layer 1" xmlns="http://www.w3.org/2000/svg" viewBox="0 0 256 256"><defs><style>.cls-1{fill:#fefefe;}.cls-2{fill:#030404;}.cls-3{fill:#151515;}.cls-4{fill:#181818;}.cls-5{fill:#141414;}.cls-6{fill:#1c1c1c;}.cls-7{fill:#232323;}.cls-8{fill:#171717;}.cls-9{fill:#14232e;}.cls-10{fill:#eeb69c;}.cls-11{fill:#5e3a16;}.cls-12{fill:#b07730;}.cls-13{fill:#b0772f;}.cls-14{fill:#a9722d;}.cls-15{fill:#6e451a;}.cls-16{fill:#6e441a;}.cls-17{fill:#5d3816;}.cls-18{fill:#603b17;}.cls-19{fill:#cab3b0;}.cls-20{fill:#c1a79b;}.cls-21{fill:#db9a7f;}.cls-22{fill:#efb59b;}.cls-23{fill:#e09171;}.cls-24{fill:#5e3a17;}.cls-25{fill:#da9070;}.cls-26{fill:#e68076;}.cls-27{fill:#7a501d;}.cls-28{fill:#d88f70;}.cls-29{fill:#bb8237;}.cls-30{fill:#613616;}.cls-31{fill:#e9847b;}.cls-32{fill:#da9375;}.cls-33{fill:#e7ae78;}.cls-34{fill:#649eae;}.cls-35{fill:#dfa463;}.cls-36{fill:#704519;}.cls-37{fill:#af5b4c;}.cls-38{fill:#5299ae;}.cls-39{fill:#b06b54;}.cls-40{fill:#6f4418;}.cls-41{fill:#643313;}.cls-42{fill:#f0d3c1;}.cls-43{fill:#b06850;}.cls-44{fill:#b37931;}.cls-45{fill:#a9722e;}.cls-46{fill:#a06e32;}.cls-47{fill:#a47134;}.cls-48{fill:#663d16;}.cls-49{fill:#c38c48;}.cls-50{fill:#dda56d;}</style></defs><path class="cls-1" d="M474,396H730V652H474Zm3.88,151.28L481,560a108.46,108.46,0,0,0,22.74,43.09,15.62,15.62,0,0,0,1.06,1.66,126.36,126.36,0,0,0,137.47,38.68c21.69-7.44,40.26-19.61,55-37.34.9-.94,1.9-1.8,2.7-2.82,9.24-11.78,17-24.36,21.15-38.92l5-20.07c.62-8.71,1.9-17.44,1.7-26.13-.33-15-3.27-29.52-9.79-43.17-2.53-5.24-4.77-10.65-7.66-15.68a119.79,119.79,0,0,0-30.65-35C668.05,415.22,655.37,408,641,403.92l-15.95-4.1c-9.19-.79-18.37-2.23-27.55-2.22a93.4,93.4,0,0,0-34.88,6.27,109.68,109.68,0,0,0-42.73,23.9L505.77,441.9c-3.84,5.13-8,10-11.46,15.43-5.41,8.49-10,17.42-12.44,27.31a93.42,93.42,0,0,0-6.27,35C475.61,528.86,477.06,538.07,477.88,547.28Z" transform="translate(-474 -396)"/><path class="cls-2" d="M697.27,606.09c-14.75,17.73-33.32,29.9-55,37.34a126.36,126.36,0,0,1-137.47-38.68,15.62,15.62,0,0,1-1.06-1.66l2-1.06,1.3.93c9.89,11.59,21,21.7,34.59,28.86s27.69,12.44,43.1,14.46a130.66,130.66,0,0,0,31.6.49,114.6,114.6,0,0,0,33.47-8.85c15.18-6.68,28.93-15.47,40.24-27.77l5.3-5.12Z" transform="translate(-474 -396)"/><path class="cls-3" d="M641,403.92c14.35,4.05,27,11.3,38.71,20.38a119.79,119.79,0,0,1,30.65,35c2.89,5,5.13,10.44,7.66,15.68-.27,1.34-.54,2.68-.82,4-.44-.88-.93-1.75-1.31-2.66-11.25-26.85-29.73-47.25-55.2-61.17-6.61-3.61-13.79-6.17-20.7-9.22C640.34,405.27,640.68,404.59,641,403.92Z" transform="translate(-474 -396)"/><path class="cls-4" d="M519.91,427.77a109.68,109.68,0,0,1,42.73-23.9,36.82,36.82,0,0,0,5.78-.9c10.91-3.47,22.23-4.12,33.51-4.84,4.71-.3,9.5.5,14.24,1,.66.07,1.22,1.18,1.83,1.81-1.16,0-2.32.11-3.48.11-9.06,0-18.13-.4-27.16.1-14.91.83-28.88,5.57-41.86,12.66-8.54,4.66-16.37,10.62-24.51,16Z" transform="translate(-474 -396)"/><path class="cls-4" d="M481.87,484.64c2.42-9.89,7-18.82,12.44-27.31,3.43-5.39,7.62-10.3,11.46-15.43l2,1.09c-.55.82-1,1.69-1.65,2.46-16.91,21.2-27,45-28,72.39-.09,2.42-1,4.81-1,7.21,0,3.24.58,6.47.9,9.71L478,540c-.57-6.81-1.23-13.61-1.66-20.42a32.8,32.8,0,0,1,.67-5.86c.5-4.24.82-8.52,1.54-12.72C479.48,495.53,480.75,490.1,481.87,484.64Z" transform="translate(-474 -396)"/><path class="cls-5" d="M697.27,606.09l-2-1.06c.77-1.08,1.48-2.19,2.32-3.21a127.67,127.67,0,0,0,22.43-41.75c4.21-12.88,4.71-26.22,5.87-39.51L726,512a20.39,20.39,0,0,1,.94,4.58c-.27,8.83-.7,17.65-1.08,26.48-.93,3.75-1.92,7.49-2.77,11.26-.75,3.33-1.33,6.69-2,10C717,578.91,709.21,591.49,700,603.27,699.17,604.29,698.17,605.15,697.27,606.09Z" transform="translate(-474 -396)"/><path class="cls-3" d="M505.7,602l-2,1.06A108.46,108.46,0,0,1,481,560l-.87-11.28c2.55,7.66,4.88,15.42,7.71,23C492,582.81,498.75,592.5,505.7,602Z" transform="translate(-474 -396)"/><path class="cls-4" d="M725.87,543.05c.38-8.83.81-17.65,1.08-26.48A20.39,20.39,0,0,0,726,512l-1-12.05-.82.05-.39,1.4q-3.28-11.2-6.59-22.4c.28-1.33.55-2.67.82-4,6.52,13.65,9.46,28.21,9.79,43.17.2,8.69-1.08,17.42-1.7,26.13Z" transform="translate(-474 -396)"/><path class="cls-6" d="M618,400.93c-.61-.63-1.17-1.74-1.83-1.81-4.74-.49-9.53-1.29-14.24-1-11.28.72-22.6,1.37-33.51,4.84a36.82,36.82,0,0,1-5.78.9,93.4,93.4,0,0,1,34.88-6.27c9.18,0,18.36,1.43,27.55,2.22,0,.71-.05,1.42-.07,2.13Z" transform="translate(-474 -396)"/><path class="cls-6" d="M481.87,484.64c-1.12,5.46-2.39,10.89-3.33,16.38-.72,4.2-1,8.48-1.54,12.72a32.8,32.8,0,0,0-.67,5.86c.43,6.81,1.09,13.61,1.66,20.42l-.11,7.26c-.82-9.21-2.27-18.42-2.28-27.64A93.42,93.42,0,0,1,481.87,484.64Z" transform="translate(-474 -396)"/><path class="cls-5" d="M507.79,443l-2-1.09,14.14-14.13,1.08,2Z" transform="translate(-474 -396)"/><path class="cls-7" d="M625,402c0-.71,0-1.42.07-2.13l15.95,4.1c-.34.67-.68,1.35-1,2Z" transform="translate(-474 -396)"/><path class="cls-6" d="M477.88,547.28,478,540l.12-5.26,2,14L481,560Z" transform="translate(-474 -396)"/><path class="cls-8" d="M725.87,543.05l.26,1.23-5,20.07c.65-3.35,1.23-6.71,2-10C724,550.54,724.94,546.8,725.87,543.05Z" transform="translate(-474 -396)"/><path class="cls-1" d="M480.12,548.72l-2-14c-.32-3.24-.87-6.47-.9-9.71,0-2.4.86-4.79,1-7.21,1-27.35,11.07-51.19,28-72.39.61-.77,1.1-1.64,1.65-2.46l13.2-13.2c8.14-5.37,16-11.33,24.51-16,13-7.09,27-11.83,41.86-12.66,9-.5,18.1-.09,27.16-.1,1.16,0,2.32-.07,3.48-.11l7,1,15,4c6.91,3.05,14.09,5.61,20.7,9.22,25.47,13.92,43.95,34.32,55.2,61.17.38.91.87,1.78,1.31,2.66q3.3,11.2,6.59,22.4,1.07,9.58,2.11,19.17c-1.16,13.29-1.66,26.63-5.87,39.51a127.67,127.67,0,0,1-22.43,41.75c-.84,1-1.55,2.13-2.32,3.21l-5.3,5.12c-3.44-4.44-7.59-7.25-13.59-7-1.31.07-2.95-1.7-4-3-1.68-2-2.63-4.74-4.57-6.31a77.36,77.36,0,0,0-12.35-8.27c-7.29-3.85-15-7-20.44-13.57-.17-.2-.63-.16-.95-.23-.35-1.27-.69-2.55-1-3.82,5.06-7.38,7.35-15.75,9-24.41.28-1.53.73-3.69,1.82-4.31,3.78-2.15,4.81-5.63,5.72-9.39.84-3.44,2.05-6.81,2.69-10.29a42.71,42.71,0,0,0,.78-9.3c-.12-3.13-1.61-3.84-5.5-3.37.05-1.75-.35-3.68.25-5.21a86.6,86.6,0,0,1,4.4-8.57c6.11-6.9,6.7-12.46,2.11-20.24-1-1.7-2.13-3.34-3.19-5h0c.56-3.71,1.15-7.42,1.66-11.14.61-4.42,1-8.83-1.55-12.87l-4-9.26c-2.06-4.51-5.8-8.48-2.61-14.25,1.32-2.39-2.42-5.19-5.14-4-2.57,1.11-5,2.48-7.55,3.74-.49-.05-1-.11-1.48-.14-5.28-.36-10.38-.88-12.27-7.2-.33-1.1-1.75-1.94-2.79-2.73-6.59-5.08-13.46-2.65-20.3-.66-.55,0-1.55,0-1.57.13-.69,3.55-3.25,3.65-6.05,3.44-1.14-.08-2.29,0-3.44,0-4.19-.76-7.5.74-10.16,3.93-5.13,2.71-5.12,2.7-2.15,7.8a21.48,21.48,0,0,1,1.12,2.65c-1,1.19-1.78,2.81-3.06,3.49-7.63,4.1-13.19,10.46-18.72,16.83-1.27,1.45-2.71,3.52-2.63,5.24.25,5.33-1.82,9.48-5.22,13.25-.16.17,0,.63,0,1.23,5,2.68,5.39,7.45,5.29,12.54-.06,2.75.24,5.51.38,8.27L556,506.27c-.38,2-1.68,1.82-3.27,1.62-.85-.11-1.8.58-2.71.92-1.94,3.4-1.35,6.89-.36,10.38,1.47,5.2,2.92,10.4,4.51,15.56a17.57,17.57,0,0,0,1.88,3.34l.8,1.09c.43,1.93.9,3.85,1.3,5.78,1.27,6.28,1.86,12.78,5.9,18.17l2.11,5.82c-4.31,6.17-10.87,8.07-17.7,9.92C532.5,583.18,518.27,590.58,507,603l-1.3-.93c-6.95-9.53-13.69-19.22-17.87-30.34C485,564.14,482.67,556.38,480.12,548.72Z" transform="translate(-474 -396)"/><path class="cls-9" d="M507,603c11.27-12.38,25.5-19.78,41.41-24.09,6.83-1.85,13.39-3.75,17.7-9.92l1.87,1,.15,9c-.3,3.46-1,7-.75,10.38a15.42,15.42,0,0,0,2.83,7.72c3.59,4.66,8,8.64,13.84,10.36,3.6,1.06,7,3.4,11.07,2.28,3.78-1,7.57-2.08,11.42-2.79,10-1.85,18-7,24.36-14.81,4.2-5.17,7.64-10.71,2-17.16.39-1,.79-2.11,1.18-3.17.32.07.78,0,.95.23,5.48,6.56,13.15,9.72,20.44,13.57a77.36,77.36,0,0,1,12.35,8.27c1.94,1.57,2.89,4.33,4.57,6.31,1.07,1.27,2.71,3,4,3,6-.29,10.15,2.52,13.59,7-11.31,12.3-25.06,21.09-40.24,27.77a114.6,114.6,0,0,1-33.47,8.85,130.66,130.66,0,0,1-31.6-.49c-15.41-2-29.52-7.3-43.1-14.46S516.89,614.55,507,603Z" transform="translate(-474 -396)"/><path class="cls-8" d="M725.92,520.56q-1-9.58-2.11-19.17l.39-1.4.82-.05L726,512Z" transform="translate(-474 -396)"/><path class="cls-10" d="M568,570l-1.87-1L564,563.13c-1.19-5.09-2.43-10.16-3.54-15.27-.63-2.87-1-5.79-1.62-8.66a8.34,8.34,0,0,0-2,0l-.8-1.09c-.13-1.3-.23-2.6-.41-3.89-1.21-8.61-6.28-16.37-5.62-25.39.91-.34,1.86-1,2.71-.92,1.59.2,2.89.4,3.27-1.62.39-2.69,1.13-5.38,1.08-8.06A23.77,23.77,0,0,1,560,486c1-2.35,2.91-4.73,2.83-7-.17-4.8,2.06-6.88,6.23-7.81l8-2.45c4.41,2,5.82,1.58,9-2.81l8,1.31,2.42,1.4L595,471.3l5.14,3.71,6.08-.08c1.53,1.1,3.18,2.2,4.73.23,1.81-2.3,3.39-4.78,5.07-7.18,6.3-3.85,9.42-3.13,12.91,2.89,1,1.72,2.12,3.35,3.19,5,.85,1,1.52,2.28,2.58,2.8,5.24,2.53,7.24,7.27,8.85,12.34.43,1.38.85,2.77,1.28,4.15v17.76l1,.05q.87-3,1.72-6c3.89-.47,5.38.24,5.5,3.37a42.71,42.71,0,0,1-.78,9.3c-.64,3.48-1.85,6.85-2.69,10.29-.91,3.76-1.94,7.24-5.72,9.39-1.09.62-1.54,2.78-1.82,4.31-1.62,8.66-3.91,17-9,24.41-3.26.74-3.93,4.08-6,6q-4.51,4.37-9,8.75a30.78,30.78,0,0,1-16.71,3.3c-4.45-.25-8.91-.09-13.37-.11-7.57-1.46-12.61-6.39-16.92-12.34C570.09,572.34,569,571.19,568,570Zm49.86-18.86c-4.44-2-8.85-4.09-14-2.63a7.67,7.67,0,0,1-3.31-.21c-4.55-.91-8.48.05-11.6,3.65l-4.55,1.49,1.59.64c8.14,7.5,23.76,6.52,31.08-2ZM585,496.06a33.34,33.34,0,0,0-5.8-1.23,136.87,136.87,0,0,0-14.18,0c-2,.12-3.86,1.33-4,3.26l18.85,1.06L568.68,504c-3.26,2.52,0,3.17,1.1,4.69l3.75-2.61c4.39,4.95,6.94,5.12,11.74.81,3.5.56,7.54-1.18,10.17,2.89,1.89-4.67-1.27-7-3.29-9.82C590.54,497.19,587.85,496.46,585,496.06Zm41.09,4.14,14.32,1.16c-1.73-3.55-4.7-6.18-8.67-6.11-6.27.1-12.53,1.06-18.78,1.83-.79.09-1.45,1.21-2.18,1.85-2.28,3.08-5.23,5.94-3.47,10.07l8.4-.91c4.52,2.83,6,2.83,9.69,0,1,.09,2.36-.2,2.86.34,2.1,2.26,3.65.62,6.24-.36l-9.91-6.52Zm-35.13,29.62c-3.38,5.39-2.29,8,2.62,8.19,1.16.06,2.6-.33,3.42.22,4,2.71,7.86,1.71,11.68-.25a11.45,11.45,0,0,0,2.15-1.93,10.64,10.64,0,0,0-2.92-.43,6.11,6.11,0,0,0-2.15,1.18c-2.84,1.82-5.32,1.58-8.12-.51-1.91-1.44-4.52-1.93-7.1-3Zm11.56-22.13-1.71.14L602.14,523C602.84,517.86,603.48,512.72,602.5,507.69Z" transform="translate(-474 -396)"/><path class="cls-11" d="M632.07,475.88c-1.07-1.66-2.2-3.29-3.19-5-3.49-6-6.61-6.74-12.91-2.89l-4.82-1,.58-2.66L607,466.91l-12.91.31-8-1.31a10,10,0,0,0,.48-2.32,16.2,16.2,0,0,0-.47-2.71c6.22-.18,12.52.45,19.49-1.62L591.91,453l-8-4.91,0-1.32c-.28-1.45-.6-2.89-.85-4.34-.58-3.41-1.14-6.83-1.72-10.37,1.77.27,4.06.51,6.3,1s4.45,1.14,6.67,1.73c-2.52-2.49-5.45-4-8.16-5.83-1.42-1-3.43-2.51-3.44-3.8,0-4.08.76-8.17,1.23-12.25,1.15,0,2.3,0,3.44,0,2.8.21,5.36.11,6.05-3.44,0-.14,1-.09,1.57-.13.24,2.65-1.28,5.94,2,7.57a70.79,70.79,0,0,0,8.27,3c3.23,1.12,7.22.52,9.81,4.2l-4.25,1.76a19.49,19.49,0,0,0-14.11,9c-2.39,3.53-1.55,6.37,2.1,7.39l.64,6.58,5.78-8.29.45.38-1.8,7.12,1.25.34,1.5-4.3,3,7.66c6-2.37,11.47-4.85,17.15-6.62,2.41-.75,3-1.78,3.45-4,.55-2.42-.48-3.38-2.27-4.21-1.17-.55-2.37-1.06-3.55-1.58,1.42-3.48,4-5.54,7.11-7.2a15.61,15.61,0,0,0,7.25-8.17c-4.88.13-6.69,4.12-9.78,6.05h-7.53l-.22-1.46c3.19-2.23,8.32-.44,10.62-4.49,2.51-1.26,5-2.63,7.55-3.74,2.72-1.18,6.46,1.62,5.14,4-3.19,5.77.55,9.74,2.61,14.25l-1,1.32c-.31-2.73-2.49-3.49-4.6-3.7-3-.3-6-.08-9.66-.08.8,3.25,1.72,7,2.67,10.68.07.27.43.51.7.67,3.35,2,6.72,4,10.12,6l-8.3,4.52c1,6.55-5.21,12.72-1.37,20Zm-38.64-33.22c-1.44-4.57-5.53-4.14-8.14-6.55C586.33,441.43,586.44,441.53,593.43,442.66Z" transform="translate(-474 -396)"/><path class="cls-12" d="M584,412.92c-.47,4.08-1.26,8.17-1.23,12.25,0,1.29,2,2.84,3.44,3.8,2.71,1.84,5.64,3.34,8.16,5.83-2.22-.59-4.42-1.26-6.67-1.73s-4.53-.7-6.3-1c.58,3.54,1.14,7,1.72,10.37.25,1.45.57,2.89.85,4.34-3-.51-2.34-3.12-2.85-5-.62-2.28-1-4.61-1.79-8.06l-10.35,14.93-1-.56c.75-3.54,1.49-7.09,2.21-10.5-3.71-1.33-5.33.41-5.68,2.58-.47,3-3.51,6.08.28,9.11,3.13,2.48,6,5.35,9,8.17-5.6,2.34-5.81,2.18-14.89-7v6.74l-5.68-5.12c-.51,2.39-1.7,4.58-1.13,6.09,1.12,2.91.45,5.18-1,7.49a3.82,3.82,0,0,0,.34,5c3.32,3.54,2.59,7.15.69,11a26.18,26.18,0,0,0-1.26,4.26l-2.07,2.27c-.14-2.76-.44-5.52-.38-8.27.1-5.09-.33-9.86-5.29-12.54,0-.6-.19-1.06,0-1.23,3.4-3.77,5.47-7.92,5.22-13.25-.08-1.72,1.36-3.79,2.63-5.24,5.53-6.37,11.09-12.73,18.72-16.83,1.28-.68,2-2.3,3.06-3.49l4.75-7.74,3.17,1.31V416l-6.89.81C576.45,413.66,579.76,412.16,584,412.92Z" transform="translate(-474 -396)"/><path class="cls-13" d="M632.07,475.88l3.64-1.8c-3.84-7.27,2.41-13.44,1.37-20l8.3-4.52c-3.4-2-6.77-4-10.12-6-.27-.16-.63-.4-.7-.67-.95-3.71-1.87-7.43-2.67-10.68,3.69,0,6.7-.22,9.66.08,2.11.21,4.29,1,4.6,3.7-1.93,4.38-6.24,4-10.1,5a19.87,19.87,0,0,0,11.66,3.88c1.15,0,3,1.76,3.48-1,2.6,4,2.16,8.45,1.55,12.87-.51,3.72-1.1,7.43-1.66,11.14l-7.24,2.92c.35-2.06.76-3.77.9-5.49s0-3.75,0-5.63l-1-.21c-.66,2.11-1.48,4.19-1.94,6.34-1.67,7.76-2.57,9.77,7.25,12,.27,0,.6-.22,1.29-.49.22-3,.46-6.19.7-9.38,1.06,1.67,2.18,3.31,3.19,5,4.59,7.78,4,13.34-2.11,20.24-.75-3.75,1.21-8.3-3.72-11.49a33,33,0,0,0-2.37,5.31c-.65,2.67-.89,5.45-1.3,8.18-.43-1.38-.85-2.77-1.28-4.15-1.61-5.07-3.61-9.81-8.85-12.34C633.59,478.16,632.92,476.84,632.07,475.88Z" transform="translate(-474 -396)"/><path class="cls-14" d="M610.86,425.92l4.25-1.76c-2.59-3.68-6.58-3.08-9.81-4.2a70.79,70.79,0,0,1-8.27-3c-3.3-1.63-1.78-4.92-2-7.57,6.84-2,13.71-4.42,20.3.66,1,.79,2.46,1.63,2.79,2.73,1.89,6.32,7,6.84,12.27,7.2.49,0,1,.09,1.48.14-2.3,4.05-7.43,2.26-10.62,4.49l.22,1.46H629c-4.9.71-9.73,3.47-14.76.21C613.38,425.73,612,426,610.86,425.92Z" transform="translate(-474 -396)"/><path class="cls-15" d="M644.78,495.17c.41-2.73.65-5.51,1.3-8.18a33,33,0,0,1,2.37-5.31c4.93,3.19,3,7.74,3.72,11.49a86.6,86.6,0,0,0-4.4,8.57c-.6,1.53-.2,3.46-.25,5.21q-.85,3-1.72,6l-1-.05Z" transform="translate(-474 -396)"/><path class="cls-16" d="M548.83,488.15l2.07-2.27,2.31.05,4.64-2.54L560,486a23.77,23.77,0,0,0-3,12.19c.05,2.68-.69,5.37-1.08,8.06Z" transform="translate(-474 -396)"/><path class="cls-17" d="M651.19,443.9c-.47,2.72-2.33,1-3.48,1A19.87,19.87,0,0,1,636.05,441c3.86-1.07,8.17-.64,10.1-5l1-1.32Z" transform="translate(-474 -396)"/><path class="cls-18" d="M573.79,416.85l6.89-.81v4.83l-3.17-1.31-4.75,7.74a21.48,21.48,0,0,0-1.12-2.65C568.67,419.55,568.66,419.56,573.79,416.85Z" transform="translate(-474 -396)"/><path class="cls-19" d="M550,508.81c-.66,9,4.41,16.78,5.62,25.39.18,1.29.28,2.59.41,3.89a17.57,17.57,0,0,1-1.88-3.34c-1.59-5.16-3-10.36-4.51-15.56C548.62,515.7,548,512.21,550,508.81Z" transform="translate(-474 -396)"/><path class="cls-20" d="M556.8,539.18a8.34,8.34,0,0,1,2,0c.62,2.87,1,5.79,1.62,8.66,1.11,5.11,2.35,10.18,3.54,15.27-4-5.39-4.63-11.89-5.9-18.17C557.7,543,557.23,541.11,556.8,539.18Z" transform="translate(-474 -396)"/><path class="cls-21" d="M627,574c2.09-1.92,2.76-5.26,6-6,.35,1.27.69,2.55,1,3.82-.39,1.06-.79,2.12-1.18,3.17L631,574Z" transform="translate(-474 -396)"/><path class="cls-22" d="M631,574l1.88,1c5.64,6.45,2.2,12-2,17.16-6.33,7.78-14.33,13-24.36,14.81-3.85.71-7.64,1.75-11.42,2.79-4.11,1.12-7.47-1.22-11.07-2.28-5.85-1.72-10.25-5.7-13.84-10.36a15.42,15.42,0,0,1-2.83-7.72c-.3-3.41.45-6.92.75-10.38,2.22-1.46,2.82.6,3.77,1.77,6.74,8.28,14.52,14.44,26.09,13.24,2.13-.22,4.35.25,6.45-.11,3.53-.59,7.25-1,10.44-2.51C622.53,587.88,627.65,581.7,631,574Z" transform="translate(-474 -396)"/><path class="cls-23" d="M631,574c-3.37,7.67-8.49,13.85-16.14,17.39-3.19,1.47-6.91,1.92-10.44,2.51-2.1.36-4.32-.11-6.45.11-11.57,1.2-19.35-5-26.09-13.24-.95-1.17-1.55-3.23-3.77-1.77l-.15-9c1,1.2,2.11,2.35,3,3.63,4.31,6,9.35,10.88,16.92,12.34.53.34,1.06.95,1.59,1,7.07.07,14.16.43,21.18-.12,2.52-.2,4.88-2.62,7.31-4q4.5-4.38,9-8.75Z" transform="translate(-474 -396)"/><path class="cls-24" d="M553.21,485.93l-2.31-.05a26.18,26.18,0,0,1,1.26-4.26c1.9-3.83,2.63-7.44-.69-11a3.82,3.82,0,0,1-.34-5c1.43-2.31,2.1-4.58,1-7.49-.57-1.51.62-3.7,1.13-6.09l5.68,5.12v-6.74c9.08,9.22,9.29,9.38,14.89,7-3.08-2.82-5.9-5.69-9-8.17-3.79-3-.75-6.15-.28-9.11.35-2.17,2-3.91,5.68-2.58-.72,3.41-1.46,7-2.21,10.5l1,.56,10.35-14.93c.75,3.45,1.17,5.78,1.79,8.06.51,1.88-.12,4.49,2.85,5l0,1.32-11.2,1.19c2.52,2.64,2.52,2.64,7.41,1.3,3.22,1,5.51,1.56,7.69,2.41.85.33,1.45,1.29,2.17,2-1.56.33-3.13.61-4.67,1-2.5.63-2.3,2.22-1.36,4l0,.89L577,457.3v11l0,.4-8,2.45a27.25,27.25,0,0,0-5.22-1.23c-1.25-.06-3.25.35-3.69,1.18C557.62,476,555.48,481,553.21,485.93Z" transform="translate(-474 -396)"/><path class="cls-25" d="M615.69,508.09l-8.4.91c-1.76-4.13,1.19-7,3.47-10.07,1.67,2.43,5.35,3.34,8.28,2.47a54.59,54.59,0,0,1,7-1.2l-1.5,1.34,9.91,6.52c-2.59,1-4.14,2.62-6.24.36-.5-.54-1.88-.25-2.86-.34,0-.62.36-1.57.07-1.82C622.71,503.87,617.79,504.84,615.69,508.09Z" transform="translate(-474 -396)"/><path class="cls-26" d="M617.06,552.11c-7.32,8.48-22.94,9.46-31.08,2Z" transform="translate(-474 -396)"/><path class="cls-27" d="M626.07,500.2a54.59,54.59,0,0,0-7,1.2c-2.93.87-6.61,0-8.28-2.47.73-.64,1.39-1.76,2.18-1.85,6.25-.77,12.51-1.73,18.78-1.83,4-.07,6.94,2.56,8.67,6.11Z" transform="translate(-474 -396)"/><path class="cls-28" d="M573.53,506.06l-3.75,2.61c-1.15-1.52-4.36-2.17-1.1-4.69,5.7-2.17,11.44-4.09,17.68-2.28.13,0,.42-.44.64-.68l5.15-1.08c2,2.79,5.18,5.15,3.29,9.82-2.63-4.07-6.67-2.33-10.17-2.89-.68-1.83-1.44-3.41-4-3a9.2,9.2,0,0,1-4.37-.11C574.51,502.93,574.19,504.62,573.53,506.06Z" transform="translate(-474 -396)"/><path class="cls-29" d="M553.21,485.93c2.27-5,4.41-10,6.92-14.81.44-.83,2.44-1.24,3.69-1.18a27.25,27.25,0,0,1,5.22,1.23c-4.17.93-6.4,3-6.23,7.81.08,2.31-1.82,4.69-2.83,7l-2.13-2.63Z" transform="translate(-474 -396)"/><path class="cls-30" d="M579.8,499.18,561,498.12c.19-1.93,2.09-3.14,4-3.26a136.87,136.87,0,0,1,14.18,0,33.34,33.34,0,0,1,5.8,1.23l-3.26,1.43,1.77,1.17-1.55.37Z" transform="translate(-474 -396)"/><path class="cls-31" d="M588.94,551.94c3.12-3.6,7-4.56,11.6-3.65a7.67,7.67,0,0,0,3.31.21c5.14-1.46,9.55.59,14,2.63-1.8,0-3.61-.2-5.41-.14C604.6,551.28,596.77,551.62,588.94,551.94Z" transform="translate(-474 -396)"/><path class="cls-32" d="M590.94,529.82l-.42,3.51c2.58,1,5.19,1.52,7.1,3,2.8,2.09,5.28,2.33,8.12.51a6.11,6.11,0,0,1,2.15-1.18,10.64,10.64,0,0,1,2.92.43,11.45,11.45,0,0,1-2.15,1.93c-3.82,2-7.65,3-11.68.25-.82-.55-2.26-.16-3.42-.22C588.65,537.79,587.56,535.21,590.94,529.82Z" transform="translate(-474 -396)"/><path class="cls-33" d="M607,466.91l4.78-2.57-.58,2.66-5,7.93-6.08.08c-.27-2.93,1.13-4.33,3.91-5.13C605.17,469.55,606,467.94,607,466.91Z" transform="translate(-474 -396)"/><path class="cls-34" d="M573.53,506.06c.66-1.44,1-3.13,3.41-2.29a9.2,9.2,0,0,0,4.37.11c2.52-.42,3.28,1.16,4,3C580.47,511.18,577.92,511,573.53,506.06Z" transform="translate(-474 -396)"/><path class="cls-35" d="M607,466.91c-1,1-1.78,2.64-3,3-2.78.8-4.18,2.2-3.91,5.13L595,471.3l1.51-2.68-2.42-1.4Z" transform="translate(-474 -396)"/><path class="cls-36" d="M606.17,474.93l5-7.93,4.82,1c-1.68,2.4-3.26,4.88-5.07,7.18C609.35,477.13,607.7,476,606.17,474.93Z" transform="translate(-474 -396)"/><path class="cls-37" d="M588.94,551.94c7.83-.32,15.66-.66,23.49-1,1.8-.06,3.61.09,5.41.14l-.78,1-31.08,2-1.59-.64Z" transform="translate(-474 -396)"/><path class="cls-38" d="M615.69,508.09c2.1-3.25,7-4.22,9.76-1.83.29.25,0,1.2-.07,1.82C621.65,510.92,620.21,510.92,615.69,508.09Z" transform="translate(-474 -396)"/><path class="cls-39" d="M618,582.77c-2.43,1.41-4.79,3.83-7.31,4-7,.55-14.11.19-21.18.12-.53,0-1.06-.62-1.59-1,4.46,0,8.92-.14,13.37.11A30.78,30.78,0,0,0,618,582.77Z" transform="translate(-474 -396)"/><path class="cls-40" d="M581.94,499l1.55-.37-1.77-1.17,3.26-1.43c2.87.4,5.56,1.13,7.17,3.88L587,501Z" transform="translate(-474 -396)"/><path class="cls-41" d="M577,468.72l0-.4,2.08-.47c4,0,5.2-2.28,4.93-5.84l.06-1.08,0-.89,2,.84a16.2,16.2,0,0,1,.47,2.71,10,10,0,0,1-.48,2.32C582.82,470.3,581.41,470.74,577,468.72Z" transform="translate(-474 -396)"/><path class="cls-42" d="M602.5,507.69c1,5,.34,10.17-.36,15.33l-1.35-15.19Z" transform="translate(-474 -396)"/><path class="cls-43" d="M581.94,499l5.06,2c-.22.24-.51.72-.64.68-6.24-1.81-12,.11-17.68,2.28l11.12-4.8Z" transform="translate(-474 -396)"/><path class="cls-44" d="M610.86,425.92c1.13.1,2.52-.19,3.36.36,5,3.26,9.86.5,14.76-.21,3.09-1.93,4.9-5.92,9.78-6.05a15.61,15.61,0,0,1-7.25,8.17c-3.16,1.66-5.69,3.72-7.11,7.2,1.18.52,2.38,1,3.55,1.58,1.79.83,2.82,1.79,2.27,4.21-.5,2.19-1,3.22-3.45,4-5.68,1.77-11.14,4.25-17.15,6.62l-3-7.66-1.5,4.3-1.25-.34,1.8-7.12-.45-.38-5.78,8.29-.64-6.58c-3.65-1-4.49-3.86-2.1-7.39A19.49,19.49,0,0,1,610.86,425.92Z" transform="translate(-474 -396)"/><path class="cls-45" d="M586,460.88l-2-.84c-.94-1.82-1.14-3.41,1.36-4,1.54-.39,3.11-.67,4.67-1l1.89-2,13.58,6.22C598.52,461.33,592.22,460.7,586,460.88Z" transform="translate(-474 -396)"/><path class="cls-46" d="M591.91,453,590,455c-.72-.68-1.32-1.64-2.17-2-2.18-.85-4.47-1.43-7.69-2.41-4.89,1.34-4.89,1.34-7.41-1.3l11.2-1.19Z" transform="translate(-474 -396)"/><path class="cls-47" d="M593.43,442.66c-7-1.13-7.1-1.23-8.14-6.55C587.9,438.52,592,438.09,593.43,442.66Z" transform="translate(-474 -396)"/><path class="cls-48" d="M651.09,467.92c-.24,3.19-.48,6.38-.7,9.38-.69.27-1,.54-1.29.49-9.82-2.18-8.92-4.19-7.25-12,.46-2.15,1.28-4.23,1.94-6.34l1,.21c0,1.88.11,3.76,0,5.63s-.55,3.43-.9,5.49l7.24-2.92Z" transform="translate(-474 -396)"/><path class="cls-49" d="M579,467.85l-2.08.47v-11l7.07,3.63L584,462C579.5,462.39,578.16,464,579,467.85Z" transform="translate(-474 -396)"/><path class="cls-50" d="M579,467.85c-.87-3.87.47-5.46,4.93-5.84C584.23,465.57,583,467.89,579,467.85Z" transform="translate(-474 -396)"/></svg>